<svg width="212" height="82" viewBox="0 0 212 82" fill="none" xmlns="http://www.w3.org/2000/svg">
<g clip-path="url(#clip0_1083_1918)">
<path d="M21.6063 0.000244141L5.81308 15.7971L19.677 29.661H0V52.0096H19.4439L5.7055 65.7623L21.4987 81.5771L46.5369 56.5388L71.4676 81.448L87.2644 65.6547L73.6336 52.0096H92.8408V29.661H73.3969L87.1568 15.9226L71.3421 0.111414L46.5369 24.9309L21.6063 0.000244141Z" fill="#000A5E"/>
<path d="M140.174 53.1108C139.758 51.0344 138.079 48.3807 133.747 48.3807C130.333 48.3807 127.5 50.9448 127.5 54.0647C127.5 56.8439 129.358 58.7015 132.159 59.2789L134.741 59.8204C136.329 60.1611 137.194 61.1401 137.194 62.3307C137.194 63.7723 136.057 64.8947 133.855 64.8947C131.219 64.8947 129.849 63.1089 129.666 61.1759L126.762 62.0043C127.049 64.676 129.197 67.7098 133.855 67.7098C138.044 67.7098 140.353 64.9629 140.353 62.0796C140.353 59.4618 138.621 57.389 135.39 56.7363L132.754 56.1769C131.327 55.8721 130.606 54.9684 130.606 53.7957C130.606 52.3864 131.904 51.1241 133.765 51.1241C136.218 51.1241 137.179 52.8239 137.355 53.9786L140.17 53.1144L140.174 53.1108ZM148.404 56.991C150.315 56.991 151.183 58.2533 151.456 59.3721L154.145 58.3788C153.622 56.3383 151.76 54.1902 148.368 54.1902C144.739 54.1902 141.924 57.0232 141.924 60.9428C141.924 64.8625 144.739 67.7278 148.458 67.7278C151.782 67.7278 153.658 65.5618 154.253 63.5607L151.617 62.5889C151.33 63.5607 150.426 64.9342 148.458 64.9342C146.489 64.9342 144.936 63.4926 144.936 60.9285C144.936 58.3644 146.579 56.991 148.404 56.991ZM159.686 59.8419C159.74 58.2174 160.643 56.9515 162.304 56.9515C164.201 56.9515 164.886 58.2138 164.886 59.7845V67.3297H167.884V59.261C167.884 56.4602 166.388 54.2045 163.279 54.2045C161.959 54.2045 160.536 54.6743 159.689 55.7932V48.3735H156.691V67.3261H159.689V59.8347V59.8419H159.686ZM176.838 64.988C174.995 64.988 173.317 63.5786 173.317 60.9285C173.317 58.2784 174.995 56.9192 176.838 56.9192C178.681 56.9192 180.36 58.2712 180.36 60.9285C180.36 63.5858 178.699 64.988 176.838 64.988ZM176.838 54.1723C173.083 54.1723 170.304 57.0268 170.304 60.9249C170.304 64.823 173.083 67.7098 176.838 67.7098C180.593 67.7098 183.39 64.8589 183.39 60.9249C183.39 56.991 180.611 54.1723 176.838 54.1723ZM191.566 64.988C189.723 64.988 188.045 63.5786 188.045 60.9285C188.045 58.2784 189.723 56.9192 191.566 56.9192C193.41 56.9192 195.088 58.2712 195.088 60.9285C195.088 63.5858 193.427 64.988 191.566 64.988ZM191.566 54.1723C187.812 54.1723 185.032 57.0268 185.032 60.9249C185.032 64.823 187.794 67.7098 191.566 67.7098C195.339 67.7098 198.118 64.8589 198.118 60.9249C198.118 56.991 195.357 54.1723 191.566 54.1723ZM203.77 48.3807H200.772V67.3333H203.77V48.3807Z" fill="#000A5E"/>
<path d="M204.745 37.1345C204.745 39.1212 206.37 40.8354 208.356 40.8354C210.343 40.8354 212 39.1033 212 37.1345C212 35.1657 210.339 33.4695 208.356 33.4695C206.373 33.4695 204.745 35.1299 204.745 37.1345Z" fill="#000A5E"/>
<path d="M194.439 36.0157C192.42 36.0157 190.469 34.5347 190.469 31.5546C190.469 28.5745 192.42 27.1293 194.439 27.1293C196.458 27.1293 198.409 28.5387 198.409 31.5546C198.391 34.5885 196.476 36.0157 194.439 36.0157ZM194.439 22.116C189.203 22.116 185.09 26.032 185.09 31.5725C185.09 37.1131 189.203 41.0686 194.439 41.0686C199.675 41.0686 203.788 37.1131 203.788 31.5725C203.788 26.032 199.707 22.116 194.439 22.116Z" fill="#000A5E"/>
<path d="M176.871 17.1886C176.871 18.9566 178.28 20.3839 179.991 20.3839C181.701 20.3839 183.186 18.9422 183.186 17.1886C183.186 15.435 181.758 13.9934 179.991 13.9934C178.223 13.9934 176.871 15.435 176.871 17.1886Z" fill="#000A5E"/>
<path d="M182.705 22.6538H177.326V40.5055H182.705V22.6538Z" fill="#000A5E"/>
<path d="M174.816 22.6539H167.83L162.487 28.6498V13.9934H157.107V40.5091H162.487V36.1233L164.219 34.2262L168.371 40.5091H174.959L167.937 30.1668L174.816 22.6539Z" fill="#000A5E"/>
<path d="M145.352 36.0157C143.333 36.0157 141.382 34.5347 141.382 31.5546C141.382 28.5745 143.333 27.1293 145.352 27.1293C147.371 27.1293 149.322 28.5387 149.322 31.5546C149.304 34.5885 147.389 36.0157 145.352 36.0157ZM145.352 22.116C140.116 22.116 136.003 26.032 136.003 31.5725C136.003 37.1131 140.116 41.0686 145.352 41.0686C150.588 41.0686 154.701 37.1131 154.701 31.5725C154.683 26.032 150.62 22.116 145.352 22.116Z" fill="#000A5E"/>
<path d="M140.443 19.4264V13.9934H119.378V19.4264H127.084V40.5091H132.682V19.4264H140.443Z" fill="#000A5E"/>
</g>
<defs>
<clipPath id="clip0_1083_1918">
<rect width="212" height="81.5776" fill="white"/>
</clipPath>
</defs>
</svg>
